<?xml version="1.0" standalone="no"?>
<svg viewBox="0 0 200 200" xmlns="http://www.w3.org/2000/svg">
  <path fill="#F2F4F8" d="M44.5,-58.1C58.3,-51.3,70.3,-39,75.8,-24.2C81.3,-9.3,80.2,8.2,73.8,22.7C67.4,37.3,55.6,48.8,42.4,60.6C29.2,72.5,14.6,84.6,-0.5,85.3C-15.6,86,-31.2,75.3,-46.2,64C-61.2,52.7,-75.5,40.9,-79.5,26.4C-83.4,11.8,-77.1,-5.6,-70.3,-21.7C-63.5,-37.8,-56.2,-52.5,-44.4,-59.9C-32.6,-67.3,-16.3,-67.3,-0.5,-66.6C15.4,-66,30.8,-64.8,44.5,-58.1Z" transform="translate(100 100)" />
</svg>
